<svg width="20" height="20" viewBox="0 0 16 16" fill="none" xmlns="http://www.w3.org/2000/svg">
<mask id="path-1-inside-1_2031_1457" fill="white">
<path d="M9.26646 7.46552L13.3948 2.66663H12.4165L8.83188 6.83344L5.96882 2.66663H2.66663L6.99613 8.96758L2.66663 14H3.64497L7.43046 9.59966L10.4541 14H13.7563L9.26622 7.46552H9.26646ZM7.92648 9.0231L7.48781 8.39566L3.99748 3.40311H5.50016L8.3169 7.43226L8.75557 8.05969L12.417 13.297H10.9143L7.92648 9.02334V9.0231Z"/>
</mask>
<path d="M9.26646 7.46552L13.3948 2.66663H12.4165L8.83188 6.83344L5.96882 2.66663H2.66663L6.99613 8.96758L2.66663 14H3.64497L7.43046 9.59966L10.4541 14H13.7563L9.26622 7.46552H9.26646ZM7.92648 9.0231L7.48781 8.39566L3.99748 3.40311H5.50016L8.3169 7.43226L8.75557 8.05969L12.417 13.297H10.9143L7.92648 9.02334V9.0231Z" fill="white"/>
<path d="M9.26646 7.46552V8.96552H9.95473L10.4036 8.44376L9.26646 7.46552ZM13.3948 2.66663L14.5319 3.64486L16.6639 1.16663H13.3948V2.66663ZM12.4165 2.66663V1.16663H11.7283L11.2794 1.68838L12.4165 2.66663ZM8.83188 6.83344L7.59559 7.6829L8.69868 9.2883L9.96899 7.81168L8.83188 6.83344ZM5.96882 2.66663L7.20511 1.81716L6.75812 1.16663H5.96882V2.66663ZM2.66663 2.66663V1.16663H-0.184023L1.43034 3.5161L2.66663 2.66663ZM6.99613 8.96758L8.13322 9.94586L8.88659 9.07018L8.23241 8.11811L6.99613 8.96758ZM2.66663 14L1.52953 13.0217L-0.602599 15.5H2.66663V14ZM3.64497 14V15.5H4.33323L4.78209 14.9782L3.64497 14ZM7.43046 9.59966L8.66674 8.75018L7.56364 7.14482L6.29334 8.62142L7.43046 9.59966ZM10.4541 14L9.21778 14.8494L9.66478 15.5H10.4541V14ZM13.7563 14V15.5H16.6069L14.9925 13.1505L13.7563 14ZM9.26622 7.46552V5.96552H6.41554L8.02995 8.315L9.26622 7.46552ZM7.92648 9.0231H9.42648V8.55073L9.15582 8.16361L7.92648 9.0231ZM7.48781 8.39566L6.25845 9.25512L6.25847 9.25515L7.48781 8.39566ZM3.99748 3.40311V1.90311H1.11861L2.76812 4.26257L3.99748 3.40311ZM5.50016 3.40311L6.72954 2.54367L6.28173 1.90311H5.50016V3.40311ZM8.3169 7.43226L7.08753 8.2917L7.08756 8.29175L8.3169 7.43226ZM8.75557 8.05969L9.98493 7.20023L9.98491 7.2002L8.75557 8.05969ZM12.417 13.297V14.797H15.2959L13.6464 12.4375L12.417 13.297ZM10.9143 13.297L9.68497 14.1564L10.1328 14.797H10.9143V13.297ZM7.92648 9.02334H6.42648V9.49569L6.69713 9.88281L7.92648 9.02334ZM10.4036 8.44376L14.5319 3.64486L12.2577 1.68839L8.12934 6.48728L10.4036 8.44376ZM13.3948 1.16663H12.4165V4.16663H13.3948V1.16663ZM11.2794 1.68838L7.69476 5.85519L9.96899 7.81168L13.5537 3.64487L11.2794 1.68838ZM10.0682 5.98397L7.20511 1.81716L4.73253 3.51609L7.59559 7.6829L10.0682 5.98397ZM5.96882 1.16663H2.66663V4.16663H5.96882V1.16663ZM1.43034 3.5161L5.75984 9.81706L8.23241 8.11811L3.90291 1.81715L1.43034 3.5161ZM5.85904 7.98931L1.52953 13.0217L3.80372 14.9782L8.13322 9.94586L5.85904 7.98931ZM2.66663 15.5H3.64497V12.5H2.66663V15.5ZM4.78209 14.9782L8.56758 10.5779L6.29334 8.62142L2.50785 13.0217L4.78209 14.9782ZM6.19419 10.4492L9.21778 14.8494L11.6903 13.1505L8.66674 8.75018L6.19419 10.4492ZM10.4541 15.5H13.7563V12.5H10.4541V15.5ZM14.9925 13.1505L10.5025 6.61603L8.02995 8.315L12.52 14.8494L14.9925 13.1505ZM9.26622 8.96552H9.26646V5.96552H9.26622V8.96552ZM9.15582 8.16361L8.71715 7.53617L6.25847 9.25515L6.69714 9.88259L9.15582 8.16361ZM8.71718 7.53621L5.22685 2.54365L2.76812 4.26257L6.25845 9.25512L8.71718 7.53621ZM3.99748 4.90311H5.50016V1.90311H3.99748V4.90311ZM4.27079 4.26255L7.08753 8.2917L9.54628 6.57282L6.72954 2.54367L4.27079 4.26255ZM7.08756 8.29175L7.52623 8.91918L9.98491 7.2002L9.54624 6.57277L7.08756 8.29175ZM7.52621 8.91915L11.1876 14.1564L13.6464 12.4375L9.98493 7.20023L7.52621 8.91915ZM12.417 11.797H10.9143V14.797H12.417V11.797ZM12.1437 12.4375L9.15583 8.16386L6.69713 9.88281L9.68497 14.1564L12.1437 12.4375ZM9.42648 9.02334V9.0231H6.42648V9.02334H9.42648Z" fill="white" mask="url(#path-1-inside-1_2031_1457)"/>
</svg>
